<?xml version="1.0" encoding="iso-8859-1"?>
<!-- Generator: Adobe Illustrator 19.0.0, SVG Export Plug-In . SVG Version: 6.00 Build 0)  -->
<svg xmlns="http://www.w3.org/2000/svg" xmlns:xlink="http://www.w3.org/1999/xlink" version="1.1" id="Capa_1" x="0px" y="0px" viewBox="0 0 454.995 454.995" style="enable-background:new 0 0 454.995 454.995;" xml:space="preserve" width="512" height="512">
<g>
	<polygon style="fill:#6CDFB4;" points="188.09,323.472 227.688,363.07 164.041,426.717 139.292,401.968 118.086,423.174    128.686,433.788 107.48,454.994 82.024,429.538 120.915,362.363  "/>
	
		<rect x="109.45" y="290.899" transform="matrix(-0.7071 -0.7071 0.7071 -0.7071 -46.2796 712.628)" style="fill:#5DC09A;" width="30" height="150"/>
	<path style="fill:#7BFFCD;" d="M429.187,85.478c-10.61-10.61-23.53-18.13-37.45-22.22c-4.09-13.92-11.61-26.84-22.22-37.45   c-34.41-34.41-90.4-34.41-124.81,0c-27.68,27.68-41.13,69.58-38.9,121.19c1.39,32.16,8.28,58.08,9.95,63.96l-209.9,209.9   c-7.81,7.81-7.81,20.47,0,28.28s20.47,7.81,28.28,0l209.9-209.9c5.88,1.67,31.8,8.56,63.96,9.95   c51.61,2.23,93.51-11.22,121.19-38.9C463.597,175.877,463.597,119.888,429.187,85.478z M254.398,200.597   c0,0-29.2-98.71,18.59-146.51c18.84-18.84,49.4-18.84,68.24,0c12.85,12.85,16.91,31.14,12.23,47.45   c16.31-4.68,34.6-0.62,47.45,12.23c18.84,18.84,18.84,49.4,0,68.24C353.107,229.797,254.398,200.597,254.398,200.597z"/>
</g>















</svg>
